<svg width="17" height="17" viewBox="0 0 17 17" fill="none" xmlns="http://www.w3.org/2000/svg">
<path d="M5.37894 12.5079L11.6073 6.27958V10.0288C11.6061 10.0952 11.6182 10.1613 11.6429 10.2231C11.6675 10.2849 11.7042 10.3411 11.7508 10.3885C11.7974 10.436 11.853 10.4736 11.9144 10.4994C11.9757 10.5251 12.0415 10.5383 12.1081 10.5383C12.1746 10.5383 12.2404 10.5251 12.3017 10.4994C12.3631 10.4736 12.4187 10.436 12.4653 10.3885C12.5119 10.3411 12.5486 10.2849 12.5733 10.2231C12.5979 10.1613 12.61 10.0952 12.6088 10.0288L12.6088 5.07046C12.6088 4.93765 12.5561 4.81028 12.4621 4.71637C12.3682 4.62246 12.2409 4.56969 12.1081 4.56967L7.14976 4.56967C7.01845 4.57195 6.89329 4.62572 6.80124 4.71939C6.70919 4.81305 6.6576 4.93913 6.6576 5.07046C6.6576 5.20179 6.70919 5.32787 6.80124 5.42153C6.89329 5.5152 7.01845 5.56897 7.14976 5.57125L10.8989 5.57125L4.67062 11.7996C4.57669 11.8935 4.52392 12.0209 4.52392 12.1537C4.52392 12.2866 4.57669 12.414 4.67062 12.5079C4.76455 12.6018 4.89194 12.6546 5.02478 12.6546C5.15762 12.6546 5.28501 12.6018 5.37894 12.5079Z" fill="#1E1E1E" stroke="black" stroke-width="0.5"/>
</svg>
