<svg width="562" height="625" viewBox="0 0 562 625" fill="none" xmlns="http://www.w3.org/2000/svg">
<g clip-path="url(#clip0_211_8136)">
<path d="M75.5002 189.39C60.6302 125.79 43.6202 94.6901 1.74023 46.6301C63.4702 34.5801 91.8202 108.29 91.8202 108.29C259.07 -24.9499 447.82 -20.5799 558.09 42.8301C378.59 -10.2199 193.87 55.8501 75.5002 189.39Z" fill="url(#paint0_linear_211_8136)"/>
<path d="M518.55 44.79L557.29 52.79C561.43 126.21 563.64 192.85 558.92 253.51L515.49 263.65C522.01 203.61 521.89 132.87 518.91 47.51C518.79 44.17 518.67 48.18 518.55 44.79ZM489.85 377.6C457.57 461.33 395.14 519.49 280.58 574.42C280.03 574.17 279.51 573.9 278.96 573.65V623.8C279.45 624.03 279.92 624.27 280.41 624.5C433.78 556.06 506.68 472.15 538.85 366.62L489.84 377.6H489.85Z" fill="url(#paint1_linear_211_8136)"/>
<path d="M85.6999 431.15L76.1299 433.32V462.57L56.1699 467.09V383.53L85.5899 376.87C102.16 373.12 111.97 381.4 111.97 397.88C111.97 414.36 101.58 427.57 85.7099 431.16L85.6999 431.15ZM76.1299 396.55V415.77L82.6599 414.29C88.4999 412.97 91.5299 408.22 91.5299 402.49C91.5299 396.76 88.3799 393.77 82.8899 395.02L76.1199 396.55H76.1299ZM155.03 400.78C154.21 400.85 153.28 400.94 151.88 401.25C142.43 403.39 139.27 411.15 139.27 420.58V448.27L119.78 452.68V390.01L138.81 385.7V394.05C141.73 387.3 147.45 382.19 155.04 380.47V400.77L155.03 400.78ZM191.79 372.16C211.52 367.69 225.41 378.4 225.41 397.38C225.41 416.36 211.17 433.55 191.79 437.94C172.29 442.35 158.52 431.62 158.52 412.76C158.52 393.9 172.88 376.44 191.79 372.16ZM191.79 420.39C199.84 418.57 205.91 410.75 205.91 401.79C205.91 392.83 199.72 387.91 191.79 389.71C183.73 391.53 178.01 399.16 178.01 408.35C178.01 417.54 183.85 422.19 191.79 420.39ZM287.04 349.05L270.47 360.56C268.83 357.23 266.38 353.25 260.2 354.65C256.35 355.52 253.78 358.49 253.78 361.71C253.78 373.05 287.87 364.14 287.87 389.69C287.87 405.09 277.13 418.62 259.27 422.67C240.94 426.82 233.59 414.87 231.49 409.02L248.19 396.77C250.4 401.16 254.84 404.57 260.44 403.31C265.23 402.23 267.68 399.52 267.68 395.82C267.68 384.72 233.83 393.33 233.83 366.59C233.83 351.55 244.45 339.36 260.68 335.68C278.19 331.72 284.96 343.2 287.06 349.05H287.04ZM333.02 367.05C333.02 361.2 329.63 358.87 324.96 359.92C319.59 361.14 316.32 365.81 316.32 370.83V408.2L296.83 412.61V326.3L316.32 321.89V351.98C318.66 347.75 323.79 342.29 331.5 340.54C350.64 336.21 352.51 352.5 352.51 365.27V400.01L333.01 404.42V367.05H333.02ZM361.95 320.63C361.95 314.3 366.62 308.71 372.81 307.31C379 305.91 383.78 309.36 383.78 315.69C383.78 322.02 378.99 327.52 372.81 328.92C366.62 330.32 361.95 326.84 361.95 320.63ZM382.73 393.16L363.24 397.57V334.9L382.73 330.49V393.16ZM410.85 360.65C411.31 366.16 416.57 369.74 423.81 368.1C431.16 366.44 435.48 360.56 436.65 358.51L449.49 365.75C447.74 369.85 439.33 381.9 423.46 385.49C403.27 390.06 390.89 378.66 390.89 360.15C390.89 341.64 403.03 324.33 421 320.26C440.5 315.85 451.12 326.21 451.12 347.58C451.12 348.77 451.12 350.09 451 351.54L410.85 360.63V360.65ZM411.44 347.87L431.29 343.38C431.06 338.42 427.44 334.94 421.37 336.31C414.95 337.76 411.92 343.35 411.45 347.87H411.44ZM458.93 289.6L478.42 285.19V371.5L458.93 375.91V289.6ZM533.16 354.21C531.41 356.63 525.57 362.37 516.58 364.41C498.96 368.4 486.58 357.59 486.58 338.37C486.58 319.15 497.78 302.88 515.53 298.87C524.87 296.76 530.59 300.24 531.87 301.5V273.09L551.37 268.68V354.99L533.16 359.11V354.22V354.21ZM519.27 315.58C511.33 317.38 506.08 324.89 506.08 334.09C506.08 343.29 511.45 348.15 519.27 346.38C527.67 344.48 532.46 336.47 532.46 328.11C532.46 318.2 526.97 313.83 519.27 315.58Z" fill="#D0D2D3" fill-opacity="0.2"/>
<path d="M82.2302 427.68L72.6602 429.85V459.1L52.7002 463.62V380.06L82.1202 373.4C98.6902 369.65 108.5 377.93 108.5 394.41C108.5 410.89 98.1102 424.1 82.2402 427.69L82.2302 427.68ZM72.6602 393.08V412.3L79.1902 410.82C85.0302 409.5 88.0602 404.75 88.0602 399.02C88.0602 393.29 84.9102 390.3 79.4202 391.55L72.6502 393.08H72.6602ZM151.55 397.31C150.73 397.38 149.8 397.47 148.4 397.78C138.95 399.92 135.79 407.68 135.79 417.11V444.8L116.3 449.21V386.54L135.33 382.23V390.58C138.25 383.83 143.97 378.72 151.56 377V397.3L151.55 397.31ZM188.31 368.69C208.04 364.22 221.93 374.93 221.93 393.91C221.93 412.89 207.69 430.08 188.31 434.47C168.81 438.88 155.04 428.15 155.04 409.29C155.04 390.43 169.4 372.97 188.31 368.69ZM188.31 416.92C196.36 415.1 202.43 407.28 202.43 398.32C202.43 389.36 196.24 384.44 188.31 386.24C180.25 388.06 174.53 395.69 174.53 404.88C174.53 414.07 180.37 418.72 188.31 416.92ZM283.57 345.58L267 357.09C265.36 353.76 262.91 349.78 256.73 351.18C252.88 352.05 250.31 355.02 250.31 358.24C250.31 369.58 284.4 360.67 284.4 386.22C284.4 401.62 273.66 415.15 255.8 419.2C237.47 423.35 230.12 411.4 228.02 405.55L244.72 393.3C246.93 397.69 251.37 401.1 256.97 399.84C261.76 398.76 264.21 396.05 264.21 392.35C264.21 381.25 230.36 389.86 230.36 363.12C230.36 348.08 240.98 335.89 257.21 332.21C274.72 328.25 281.49 339.73 283.59 345.58H283.57ZM329.55 363.58C329.55 357.73 326.16 355.4 321.49 356.45C316.12 357.67 312.85 362.34 312.85 367.36V404.73L293.36 409.14V322.83L312.85 318.42V348.51C315.19 344.28 320.32 338.82 328.03 337.07C347.17 332.74 349.04 349.03 349.04 361.8V396.54L329.54 400.95V363.58H329.55ZM358.48 317.16C358.48 310.83 363.15 305.24 369.34 303.84C375.53 302.44 380.31 305.89 380.31 312.22C380.31 318.55 375.52 324.05 369.34 325.45C363.15 326.85 358.48 323.37 358.48 317.16ZM379.25 389.69L359.76 394.1V331.43L379.25 327.02V389.69ZM407.38 357.18C407.84 362.69 413.1 366.27 420.34 364.63C427.69 362.97 432.01 357.09 433.18 355.04L446.02 362.28C444.27 366.38 435.86 378.43 419.99 382.02C399.8 386.59 387.42 375.19 387.42 356.68C387.42 338.17 399.56 320.86 417.53 316.79C437.03 312.38 447.65 322.74 447.65 344.11C447.65 345.3 447.65 346.62 447.53 348.07L407.38 357.16V357.18ZM407.96 344.39L427.81 339.9C427.58 334.94 423.96 331.46 417.89 332.83C411.47 334.28 408.44 339.87 407.97 344.39H407.96ZM455.46 286.13L474.95 281.72V368.03L455.46 372.44V286.13ZM529.69 350.74C527.94 353.16 522.1 358.9 513.11 360.94C495.49 364.93 483.11 354.12 483.11 334.9C483.11 315.68 494.31 299.41 512.06 295.4C521.4 293.29 527.12 296.77 528.4 298.03V269.62L547.9 265.21V351.52L529.69 355.64V350.75V350.74ZM515.8 312.1C507.86 313.9 502.61 321.41 502.61 330.61C502.61 339.81 507.98 344.67 515.8 342.9C524.2 341 528.99 332.99 528.99 324.63C528.99 314.72 523.5 310.35 515.8 312.1Z" fill="url(#paint2_linear_211_8136)"/>
<path d="M423.59 188.95C418.41 188.95 414.02 192.29 412.44 196.93H348.07C346.49 192.29 342.09 188.95 336.92 188.95C331.75 188.95 327.35 192.29 325.77 196.93H262.49C260.91 192.29 256.51 188.95 251.34 188.95C246.17 188.95 241.77 192.29 240.19 196.93H174.73C173.15 192.29 168.75 188.95 163.58 188.95C157.07 188.95 151.79 194.23 151.79 200.74C151.79 207.25 157.07 212.53 163.58 212.53C169.02 212.53 173.6 208.84 174.96 203.83H239.97C241.33 208.84 245.9 212.53 251.35 212.53C256.8 212.53 261.37 208.84 262.73 203.83H325.57C326.93 208.84 331.5 212.53 336.95 212.53C342.4 212.53 346.97 208.84 348.33 203.83H412.25C413.61 208.84 418.18 212.53 423.63 212.53C430.14 212.53 435.42 207.25 435.42 200.74C435.42 194.23 430.14 188.95 423.63 188.95H423.59Z" fill="url(#paint3_linear_211_8136)"/>
<path d="M187.08 207.45C186.8 209.58 186.27 211.63 185.5 213.59C184.28 216.71 182.6 219.42 180.45 221.73C178.3 224.04 175.82 225.87 172.99 227.22C170.16 228.58 167.14 229.25 163.92 229.25C160.7 229.25 157.68 228.57 154.85 227.22C152.02 225.86 149.56 224.03 147.46 221.73C145.36 219.42 143.7 216.71 142.49 213.59C141.27 210.47 140.66 207.15 140.66 203.62C140.66 200.09 141.27 196.75 142.49 193.58C143.71 190.42 145.37 187.68 147.46 185.37C149.56 183.06 152.02 181.23 154.85 179.88C157.68 178.52 160.7 177.85 163.92 177.85C167.14 177.85 170.16 178.53 172.99 179.88C175.82 181.24 178.3 183.07 180.45 185.37C182.53 187.61 184.17 190.25 185.38 193.3H205.02V163.19H187.47V169.16C185.03 167.44 182.59 166.09 180.16 165.09C174.89 162.74 169.48 161.56 163.92 161.56C158.36 161.56 152.95 162.74 147.68 165.09C142.51 167.35 138.17 170.38 134.66 174.18C130.95 178.25 128.1 182.77 126.1 187.74C124.1 192.71 123.1 198 123.1 203.61C123.1 209.22 124.1 214.39 126.1 219.41C128.1 224.43 130.95 228.93 134.66 232.91C136.51 234.9 138.51 236.64 140.66 238.13C142.8 239.62 145.14 240.96 147.68 242.13C153.04 244.39 158.45 245.52 163.92 245.52C169.39 245.52 174.79 244.39 180.16 242.13C182.69 240.96 185.13 239.55 187.47 237.92V241.18C187.47 244.16 186.86 246.97 185.64 249.59C184.42 252.21 182.74 254.52 180.59 256.51C178.44 258.5 175.96 260.06 173.13 261.19C170.3 262.32 167.28 262.89 164.06 262.89C160.84 262.89 157.82 262.32 154.99 261.19C152.16 260.06 149.67 258.5 147.53 256.51C145.38 254.52 143.7 252.21 142.48 249.59C141.26 246.97 140.65 244.16 140.65 241.18H123.1C123.1 246.33 124.12 251.19 126.17 255.76C128.22 260.33 131.19 264.42 135.09 268.04C138.99 271.66 143.4 274.42 148.33 276.31C153.25 278.21 158.5 279.16 164.06 279.16C169.62 279.16 174.74 278.21 179.71 276.31C184.68 274.41 189.12 271.65 193.02 268.04C196.82 264.42 199.77 260.33 201.87 255.76C203.97 251.19 205.02 246.33 205.02 241.18V207.43H187.07L187.08 207.45Z" fill="#4B174B"/>
<path d="M227.24 193.3C231.06 183.74 240.4 176.98 251.32 176.98C262.24 176.98 271.58 183.74 275.4 193.3H292.89C288.6 174.2 271.53 159.93 251.14 159.93C230.75 159.93 213.68 174.2 209.39 193.3H227.24Z" fill="#4B174B"/>
<path d="M276.85 207.45C274.7 219.61 264.1 228.85 251.32 228.85C238.54 228.85 227.94 219.61 225.79 207.45H208.6C210.95 228.87 229.09 245.53 251.14 245.53C273.19 245.53 291.33 228.87 293.68 207.45H276.85Z" fill="#4B174B"/>
<path d="M314.88 193.3C316.09 190.25 317.7 187.61 319.74 185.37C321.84 183.06 324.3 181.23 327.13 179.88C329.96 178.52 332.98 177.85 336.2 177.85C339.42 177.85 342.44 178.53 345.27 179.88C348.1 181.24 350.58 183.07 352.73 185.37C354.81 187.61 356.45 190.25 357.66 193.3H377.3V163.19H359.75V169.16C357.31 167.44 354.87 166.09 352.44 165.09C347.17 162.74 341.76 161.56 336.2 161.56C330.64 161.56 325.23 162.74 319.96 165.09C314.79 167.35 310.45 170.38 306.94 174.18C303.23 178.25 300.38 182.77 298.38 187.74C297.65 189.55 297.06 191.4 296.6 193.3H314.88Z" fill="#4B174B"/>
<path d="M359.35 207.45C359.07 209.58 358.54 211.63 357.77 213.59C356.55 216.71 354.87 219.42 352.72 221.73C350.57 224.04 348.09 225.87 345.26 227.22C342.43 228.58 339.41 229.25 336.19 229.25C332.97 229.25 329.95 228.57 327.12 227.22C324.29 225.86 321.83 224.03 319.73 221.73C317.63 219.42 315.97 216.71 314.76 213.59C313.99 211.62 313.47 209.58 313.18 207.45H295.54C295.9 211.59 296.84 215.58 298.37 219.42C300.37 224.44 303.22 228.94 306.93 232.92C308.78 234.91 310.78 236.65 312.93 238.14C315.07 239.63 317.41 240.97 319.95 242.14C325.31 244.4 330.72 245.53 336.19 245.53C341.66 245.53 347.06 244.4 352.43 242.14C354.96 240.97 357.4 239.56 359.74 237.93V241.19C359.74 244.17 359.13 246.98 357.91 249.6C356.69 252.22 355.01 254.53 352.86 256.52C350.71 258.51 348.23 260.07 345.4 261.2C342.57 262.33 339.55 262.9 336.33 262.9C333.11 262.9 330.09 262.33 327.26 261.2C324.43 260.07 321.94 258.51 319.8 256.52C317.65 254.53 315.97 252.22 314.75 249.6C313.53 246.98 312.92 244.17 312.92 241.19H295.37C295.37 246.34 296.39 251.2 298.44 255.77C300.49 260.34 303.46 264.43 307.36 268.05C311.26 271.67 315.67 274.43 320.6 276.32C325.52 278.22 330.77 279.17 336.33 279.17C341.89 279.17 347.01 278.22 351.98 276.32C356.95 274.42 361.39 271.66 365.29 268.05C369.09 264.43 372.04 260.34 374.14 255.77C376.24 251.2 377.29 246.34 377.29 241.19V207.44H359.34L359.35 207.45Z" fill="#4B174B"/>
<path d="M423.41 159.94C403.02 159.94 385.95 174.21 381.66 193.31H399.51C403.33 183.75 412.67 176.99 423.59 176.99C437.91 176.99 449.52 188.6 449.52 202.92C449.52 217.24 437.91 228.85 423.59 228.85C410.82 228.85 400.21 219.61 398.06 207.45H380.87C383.22 228.87 401.36 245.53 423.41 245.53C447.05 245.53 466.21 226.37 466.21 202.73C466.21 179.09 447.05 159.93 423.41 159.93V159.94Z" fill="#4B174B"/>
<path d="M403.14 267.48H399.09V259.88C399.09 258.74 398.53 258.06 397.56 258.06C396.59 258.06 396.01 258.72 396.01 259.88V267.48H391.96V254.74H395.92V256.05C396.36 255.27 397.38 254.42 399.08 254.42C400.58 254.42 401.7 255.05 402.38 256.09C403.16 255.09 404.35 254.42 406 254.42C408.94 254.42 410.32 256.31 410.32 259.01V267.48H406.27V259.88C406.27 258.74 405.69 258.06 404.72 258.06C403.75 258.06 403.17 258.79 403.17 259.88V267.48H403.14Z" fill="#4B174B"/>
<path d="M418.79 254.42C422.89 254.42 425.78 257.24 425.78 261.09C425.78 264.94 422.82 267.79 418.79 267.79C414.76 267.79 411.87 264.97 411.87 261.14C411.87 257.31 414.86 254.42 418.79 254.42ZM418.79 264.23C420.46 264.23 421.73 262.92 421.73 261.1C421.73 259.28 420.44 257.99 418.79 257.99C417.14 257.99 415.93 259.28 415.93 261.15C415.93 263.02 417.14 264.23 418.79 264.23Z" fill="#4B174B"/>
<path d="M431.85 254.74H434.01V258.02H431.85V262.7C431.85 263.82 432.6 264.08 433.43 264.08C433.65 264.08 433.84 264.08 434.11 264.06V267.53C434.11 267.53 433.58 267.68 432.56 267.68C429.55 267.68 427.8 266.3 427.8 262.51V258.02H426.56V254.74H427.8V252.05H431.85V254.74Z" fill="#4B174B"/>
<path d="M442.26 254.42C446.36 254.42 449.25 257.24 449.25 261.09C449.25 264.94 446.29 267.79 442.26 267.79C438.23 267.79 435.34 264.97 435.34 261.14C435.34 257.31 438.33 254.42 442.26 254.42ZM442.26 264.23C443.93 264.23 445.2 262.92 445.2 261.1C445.2 259.28 443.91 257.99 442.26 257.99C440.61 257.99 439.4 259.28 439.4 261.15C439.4 263.02 440.61 264.23 442.26 264.23Z" fill="#4B174B"/>
<path d="M458.25 258.55C458.08 258.53 457.89 258.5 457.59 258.5C455.62 258.5 454.97 259.93 454.97 261.85V267.48H450.92V254.74H454.88V256.44C455.49 255.2 456.68 254.43 458.25 254.43V258.56V258.55Z" fill="#4B174B"/>
<path d="M466.22 160.22C466.22 154.85 470.36 150.86 475.42 150.86C480.48 150.86 484.62 154.84 484.62 160.22C484.62 165.6 480.48 169.58 475.42 169.58C470.36 169.58 466.22 165.64 466.22 160.22ZM483.03 160.22C483.03 155.62 479.82 152.22 475.41 152.22C471 152.22 467.79 155.62 467.79 160.22C467.79 164.82 471 168.22 475.41 168.22C479.82 168.22 483.03 164.86 483.03 160.22ZM471.82 155.16H476.38C478.2 155.16 479.51 156.32 479.51 157.95C479.51 159.07 478.93 160 477.65 160.31V160.35C478.62 160.62 479.08 161.16 479.2 162.36C479.35 163.75 479.28 164.79 479.62 164.95V165.07H477.73C477.46 164.95 477.34 163.83 477.3 162.79C477.26 161.75 476.64 161.09 475.41 161.09H473.79V165.07H471.82V155.17V155.16ZM473.79 159.57H475.96C477.04 159.57 477.58 158.99 477.58 158.18C477.58 157.37 477.04 156.79 475.96 156.79H473.79V159.57Z" fill="#4B174B"/>
<path d="M27.3101 377.6C4.46013 312.61 -2.39987 237.21 0.710132 147.29L5.42013 75.6899C20.4401 93.6999 39.8201 126.93 48.4701 147.29L47.0201 171.86C41.6101 247.27 48.9101 311.98 69.6901 367.71L27.3201 377.6H27.3101ZM122.84 459.8L76.1401 470.26C119.69 529.2 184.86 578.74 278.97 623.79V573.64C212.21 542.68 160.5 505.25 122.85 459.8H122.84Z" fill="url(#paint4_linear_211_8136)"/>
</g>
<defs>
<linearGradient id="paint0_linear_211_8136" x1="558.09" y1="94.6901" x2="1.74023" y2="94.6901" gradientUnits="userSpaceOnUse">
<stop stop-color="#F6921E"/>
<stop offset="1" stop-color="#EE4723"/>
</linearGradient>
<linearGradient id="paint1_linear_211_8136" x1="420.27" y1="620.47" x2="420.27" y2="43.22" gradientUnits="userSpaceOnUse">
<stop stop-color="#8B63A9"/>
<stop offset="0.92" stop-color="#4B164B"/>
</linearGradient>
<linearGradient id="paint2_linear_211_8136" x1="394.177" y1="388.842" x2="373.495" y2="297.516" gradientUnits="userSpaceOnUse">
<stop stop-color="#F6921E"/>
<stop offset="1" stop-color="#EE4723"/>
</linearGradient>
<linearGradient id="paint3_linear_211_8136" x1="151.77" y1="200.74" x2="435.37" y2="200.74" gradientUnits="userSpaceOnUse">
<stop stop-color="#F27F20"/>
<stop offset="0.97" stop-color="#EA2427"/>
</linearGradient>
<linearGradient id="paint4_linear_211_8136" x1="139.48" y1="56.5299" x2="139.48" y2="618.12" gradientUnits="userSpaceOnUse">
<stop stop-color="#8B63A9"/>
<stop offset="0.92" stop-color="#4B164B"/>
</linearGradient>
<clipPath id="clip0_211_8136">
<rect width="561.58" height="624.5" fill="white"/>
</clipPath>
</defs>
</svg>
